<svg xmlns="http://www.w3.org/2000/svg" xmlns:xlink="http://www.w3.org/1999/xlink" viewBox="0,0,256,256" width="24px" height="24px" fill-rule="nonzero"><g fill="#ffffff" fill-rule="nonzero" stroke="none" stroke-width="1" stroke-linecap="butt" stroke-linejoin="miter" stroke-miterlimit="10" stroke-dasharray="" stroke-dashoffset="0" font-family="none" font-weight="none" font-size="none" text-anchor="none" style="mix-blend-mode: normal"><g transform="scale(10.66667,10.66667)"><path d="M21.80078,0h-19.60156c-1.19922,0 -2.19922,1 -2.19922,2.19922v19.60156c0,1.19922 1,2.19922 2.19922,2.19922h19.60156c1.19922,0 2.19922,-1 2.19922,-2.19922v-19.60156c0,-1.19922 -1,-2.19922 -2.19922,-2.19922zM7,20h-4v-11h4zM5,7.69922c-1.19922,0 -2,-0.80078 -2,-1.80078c0,-1.09766 0.80078,-1.89844 2,-1.89844c1.19922,0 2,0.80078 2,1.80078c0,1.09766 -0.80078,1.89844 -2,1.89844zM21,20h-4v-6c0,-1.60156 -1.10156,-2 -1.39844,-2c-0.30078,0 -1.60156,0.19922 -1.60156,2c0,0.19922 0,6 0,6h-4v-11h4v1.60156c0.60156,-0.90234 1.60156,-1.60156 3.5,-1.60156c1.89844,0 3.5,1.5 3.5,5z"></path></g></g></svg>